<?xml version="1.0" encoding="utf-8"?>
<!-- Generator: Adobe Illustrator 26.0.1, SVG Export Plug-In . SVG Version: 6.00 Build 0)  -->
<svg version="1.1" id="Layer_1" xmlns="http://www.w3.org/2000/svg" xmlns:xlink="http://www.w3.org/1999/xlink" x="0px" y="0px"
	 viewBox="0 0 170.08 170.08" style="enable-background:new 0 0 170.08 170.08;" xml:space="preserve">
<style type="text/css">
	.st0{fill:none;stroke:#000000;stroke-miterlimit:10;}
	.st1{fill:#5D736B;}
	.st2{fill:none;}
	.st3{fill:#5D736B;stroke:#5D736B;stroke-miterlimit:10;}
</style>
<path class="st0" d="M53.63,148.73"/>
<path class="st0" d="M85.04,156.1"/>
<path class="st0" d="M151.64,60.62"/>
<path class="st0" d="M135.12,34.66"/>
<path class="st0" d="M122.36,24.56"/>
<path class="st0" d="M44.96,26.35"/>
<g>
	<path class="st1" d="M27.61,142.39L47.45,41.07l32.35,73.24l33.51-73.24l17.82,101.32h-14.59l-9.09-56.88l-27.89,61.22l-27.1-61.28
		l-10.13,56.95H27.61z"/>
</g>
<rect x="106.79" y="39.31" class="st2" width="29.29" height="19.74"/>
<g>
	<path class="st3" d="M139.55,64.83h15.16v5.77h-27.34L141.5,53.5c1.39-1.7,2.55-3.18,3.49-4.43c0.94-1.25,1.66-2.29,2.15-3.14
		c1-1.65,1.5-3.14,1.5-4.46c0-1.9-0.67-3.49-2-4.77c-1.34-1.28-2.99-1.92-4.96-1.92c-4.11,0-6.47,2.44-7.07,7.3h-6.12
		c0.98-8.58,5.32-12.87,13-12.87c3.71,0,6.82,1.18,9.33,3.53c2.53,2.36,3.8,5.27,3.8,8.75c0,2.21-0.59,4.39-1.77,6.51
		c-0.6,1.11-1.47,2.42-2.62,3.94c-1.15,1.52-2.61,3.32-4.36,5.39L139.55,64.83z"/>
</g>
</svg>
