<?xml version="1.0" encoding="utf-8"?>
<!-- Generator: Adobe Illustrator 26.0.1, SVG Export Plug-In . SVG Version: 6.00 Build 0)  -->
<svg version="1.1" id="Layer_1" xmlns="http://www.w3.org/2000/svg" xmlns:xlink="http://www.w3.org/1999/xlink" x="0px" y="0px"
	 viewBox="0 0 283.46 283.46" style="enable-background:new 0 0 283.46 283.46;" xml:space="preserve">
<style type="text/css">
	.st0{fill:none;stroke:#000000;stroke-miterlimit:10;}
	.st1{fill:none;stroke:#FFFFFF;stroke-miterlimit:10;}
	.st2{fill:#FFFFFF;stroke:#FFFFFF;stroke-miterlimit:10;}
</style>
<g>
	<path class="st0" d="M83.83,259.16"/>
	<path class="st0" d="M141.73,272.75"/>
	<path class="st1" d="M265.9,100.6c6.75,20.14,6.88,36.76,6.85,41.13c-0.33,45.76-27.47,93.88-71.47,116.73"/>
	<path class="st0" d="M264.53,96.72"/>
	<path class="st0" d="M234.06,48.85"/>
	<path class="st0" d="M210.54,30.22"/>
	<path class="st1" d="M67.84,33.53C98.83,12.29,130,10.72,141.73,10.72c9.97,0,34.94,1.14,61.74,15.44"/>
	<path class="st0" d="M67.84,33.53"/>
	<path class="st1" d="M83.83,259.16c-3.32-1.62-9.9-5-16.74-9.74C37.89,229.19,10.79,189,10.72,141.73
		c-0.01-5.53,0.33-22.34,7.35-42.49"/>
	<g>
		<path class="st2" d="M26.49,93.83L11.95,82.76l14.16,0.59L17.1,72.3l17.48,5.09l-1.14,2.32l-9.74-3l7.54,9.21l-11.85-0.49
			l8.25,6.06L26.49,93.83z"/>
		<path class="st2" d="M37.5,64.71L33.34,71c0.76,0.42,1.48,0.57,2.19,0.44c0.69-0.14,1.26-0.53,1.69-1.18
			c0.33-0.5,0.49-1,0.47-1.49c-0.03-0.48-0.23-1.15-0.6-1.99l2.09-1.08c0.28,0.56,0.48,1.1,0.6,1.6c0.13,0.51,0.18,1,0.17,1.47
			c-0.02,0.47-0.1,0.94-0.27,1.39c-0.16,0.45-0.39,0.91-0.7,1.37c-0.87,1.31-1.98,2.08-3.35,2.32c-1.37,0.23-2.76-0.11-4.16-1.04
			c-1.39-0.92-2.26-2.05-2.61-3.38c-0.33-1.33-0.08-2.64,0.77-3.92c0.85-1.29,1.94-2.04,3.26-2.25c1.31-0.2,2.69,0.17,4.14,1.13
			L37.5,64.71z M34.47,65.69c-1.27-0.43-2.26-0.11-2.98,0.97c-0.16,0.25-0.28,0.5-0.35,0.77c-0.07,0.27-0.09,0.53-0.07,0.8
			s0.09,0.53,0.21,0.79s0.28,0.5,0.48,0.74L34.47,65.69z"/>
		<path class="st2" d="M33.49,47.92l1.54-1.9l14.17,11.5l-1.54,1.9l-0.86-0.69c0.12,1.33-0.2,2.47-0.96,3.41
			c-0.91,1.12-2.07,1.72-3.48,1.79c-1.43,0.06-2.77-0.42-4.01-1.43c-1.22-0.99-1.94-2.18-2.16-3.58c-0.23-1.39,0.1-2.64,0.99-3.74
			c0.78-0.96,1.86-1.49,3.26-1.61L33.49,47.92z M39.92,60.56c0.78,0.64,1.59,0.94,2.42,0.92c0.85-0.03,1.54-0.37,2.07-1.02
			c0.57-0.7,0.79-1.46,0.65-2.28c-0.15-0.83-0.61-1.56-1.37-2.18s-1.57-0.92-2.42-0.89c-0.84,0.04-1.53,0.4-2.09,1.09
			c-0.53,0.65-0.72,1.39-0.58,2.23C38.74,59.25,39.18,59.96,39.92,60.56z"/>
		<path class="st2" d="M40.01,45.59c-0.31-0.29-0.47-0.65-0.49-1.09c-0.01-0.44,0.13-0.81,0.42-1.13c0.3-0.32,0.67-0.49,1.11-0.5
			c0.43-0.02,0.81,0.12,1.13,0.42c0.32,0.3,0.49,0.67,0.5,1.11c0.02,0.43-0.12,0.81-0.42,1.13c-0.3,0.32-0.67,0.49-1.11,0.5
			S40.34,45.9,40.01,45.59z M45.12,46.54l7.68,7.2l-1.66,1.77l-7.68-7.2L45.12,46.54z"/>
		<path class="st2" d="M53.24,38.66l1.79-1.66l7.14,7.72l-1.79,1.66l-0.75-0.81c-0.1,1.37-0.57,2.44-1.42,3.22
			c-1.07,0.99-2.31,1.42-3.72,1.29c-1.42-0.15-2.68-0.81-3.77-1.99c-1.07-1.16-1.62-2.44-1.64-3.86c-0.02-1.41,0.49-2.6,1.53-3.56
			c0.9-0.83,2.05-1.21,3.45-1.13L53.24,38.66z M52.56,46.42c0.69,0.74,1.44,1.16,2.27,1.26c0.84,0.09,1.57-0.15,2.19-0.72
			c0.66-0.61,0.98-1.33,0.97-2.16c-0.03-0.85-0.38-1.63-1.05-2.36c-0.67-0.72-1.43-1.13-2.27-1.23c-0.83-0.08-1.57,0.18-2.22,0.78
			c-0.61,0.57-0.91,1.27-0.89,2.12C51.59,44.96,51.92,45.73,52.56,46.42z"/>
	</g>
	<g>
		<path class="st2" d="M111.39,268.22l5.77-17.34l4.03,13.59l7.53-12.1l0.85,18.19l-2.56-0.33l-0.31-10.19l-6.28,10.12l-3.38-11.37
			l-3.06,9.77L111.39,268.22z"/>
		<path class="st2" d="M141.64,260.52l2.44,0.1l-0.44,10.51l-2.44-0.1l0.05-1.1c-1.04,0.89-2.14,1.32-3.29,1.27
			c-1.45-0.06-2.63-0.64-3.54-1.73c-0.9-1.11-1.31-2.47-1.25-4.07c0.07-1.58,0.59-2.87,1.58-3.88c0.99-1.01,2.19-1.49,3.61-1.43
			c1.22,0.05,2.3,0.6,3.23,1.65L141.64,260.52z M135.66,265.5c-0.04,1.01,0.19,1.84,0.71,2.5c0.53,0.66,1.21,1.01,2.05,1.05
			c0.9,0.04,1.64-0.24,2.22-0.84c0.58-0.62,0.89-1.42,0.93-2.4c0.04-0.99-0.2-1.81-0.73-2.47c-0.53-0.65-1.23-0.99-2.12-1.03
			c-0.83-0.04-1.55,0.25-2.13,0.86C136.01,263.78,135.7,264.56,135.66,265.5z"/>
		<path class="st2" d="M149.5,252.85l0.09,18.25l-2.43,0.01l-0.09-18.25L149.5,252.85z"/>
		<path class="st2" d="M152.56,260.65l2.43-0.15l0.06,0.97c0.44-0.52,0.82-0.87,1.13-1.07c0.34-0.2,0.78-0.32,1.31-0.35
			c1.19-0.07,2.16,0.39,2.91,1.38c0.7-1.08,1.7-1.66,3-1.75c2.36-0.15,3.64,1.21,3.81,4.08l0.4,6.49l-2.44,0.15l-0.36-5.83
			c-0.06-1.01-0.23-1.71-0.5-2.11c-0.28-0.41-0.7-0.59-1.28-0.56c-0.67,0.04-1.14,0.32-1.41,0.85c-0.27,0.52-0.38,1.34-0.31,2.45
			l0.34,5.42l-2.44,0.15l-0.36-5.8c-0.12-1.87-0.71-2.77-1.79-2.7c-0.68,0.04-1.16,0.33-1.45,0.86c-0.28,0.53-0.39,1.34-0.32,2.44
			l0.34,5.42l-2.43,0.15L152.56,260.65z"/>
		<path class="st2" d="M170.19,264.57c-0.21-1.5,0.15-2.86,1.08-4.07c0.93-1.21,2.17-1.92,3.72-2.13c1.56-0.22,2.95,0.13,4.18,1.04
			c1.22,0.91,1.93,2.14,2.15,3.69c0.22,1.56-0.14,2.95-1.07,4.15c-0.94,1.2-2.2,1.91-3.77,2.13c-1.56,0.22-2.95-0.13-4.15-1.06
			C171.12,267.43,170.41,266.17,170.19,264.57z M170.8,255.87c-0.06-0.41,0.04-0.79,0.3-1.12c0.26-0.34,0.6-0.54,1.02-0.6
			c0.42-0.06,0.8,0.04,1.14,0.3c0.34,0.25,0.54,0.59,0.6,1.01c0.06,0.43-0.04,0.81-0.3,1.15c-0.27,0.34-0.61,0.53-1.02,0.59
			c-0.43,0.06-0.81-0.04-1.15-0.3C171.05,256.63,170.85,256.29,170.8,255.87z M172.65,264.27c0.15,1.04,0.54,1.83,1.18,2.35
			c0.66,0.53,1.45,0.74,2.39,0.61c0.94-0.13,1.65-0.54,2.13-1.22c0.48-0.68,0.65-1.53,0.51-2.55c-0.14-1.01-0.54-1.78-1.18-2.31
			c-0.66-0.53-1.45-0.74-2.39-0.61c-0.92,0.13-1.62,0.54-2.11,1.23C172.69,262.47,172.52,263.3,172.65,264.27z M175.27,255.25
			c-0.06-0.41,0.04-0.79,0.3-1.12c0.26-0.34,0.6-0.54,1.02-0.6c0.43-0.06,0.81,0.04,1.14,0.3c0.34,0.25,0.54,0.59,0.6,1.01
			c0.06,0.43-0.04,0.81-0.3,1.15c-0.27,0.34-0.61,0.53-1.02,0.59c-0.42,0.06-0.8-0.04-1.14-0.3
			C175.53,256.02,175.33,255.68,175.27,255.25z"/>
	</g>
	<g>
		<path class="st2" d="M79.45,108.9l5.85-29.89l9.54,21.61l9.88-21.61l5.26,29.89h-4.3L103,92.12l-8.23,18.06l-7.99-18.08
			l-2.99,16.8H79.45z"/>
		<path class="st2" d="M131.59,85.25l-3.4,2.02c-0.64-1.1-1.24-1.82-1.82-2.16c-0.6-0.38-1.37-0.58-2.32-0.58
			c-1.16,0-2.13,0.33-2.9,0.99c-0.77,0.65-1.15,1.46-1.15,2.45c0,1.36,1.01,2.45,3.02,3.28l2.77,1.13c2.26,0.91,3.91,2.03,4.95,3.34
			s1.57,2.93,1.57,4.83c0,2.56-0.85,4.67-2.56,6.34c-1.72,1.68-3.85,2.52-6.39,2.52c-2.41,0-4.41-0.71-5.98-2.14
			c-1.55-1.43-2.51-3.44-2.9-6.03l4.25-0.94c0.19,1.63,0.53,2.76,1.01,3.39c0.86,1.2,2.12,1.8,3.78,1.8c1.31,0,2.39-0.44,3.26-1.31
			c0.86-0.88,1.3-1.99,1.3-3.33c0-0.54-0.08-1.04-0.23-1.49c-0.15-0.45-0.38-0.86-0.7-1.24c-0.32-0.38-0.73-0.73-1.23-1.06
			s-1.1-0.65-1.8-0.95l-2.68-1.12c-3.81-1.61-5.71-3.96-5.71-7.06c0-2.09,0.8-3.83,2.39-5.24c1.6-1.42,3.58-2.12,5.96-2.12
			C127.29,80.56,129.79,82.13,131.59,85.25z"/>
		<path class="st2" d="M145.56,85.05v23.86h-4.2V85.05h-6.39V81.1h16.96v3.94H145.56z"/>
		<path class="st2" d="M159.88,81.1v16.74c0,2.39,0.39,4.13,1.17,5.24c1.16,1.6,2.8,2.39,4.92,2.39c2.12,0,3.77-0.8,4.93-2.39
			c0.78-1.07,1.17-2.81,1.17-5.24V81.1h4.2V99c0,2.93-0.91,5.34-2.74,7.24c-2.05,2.11-4.57,3.17-7.56,3.17
			c-2.99,0-5.5-1.06-7.54-3.17c-1.82-1.9-2.74-4.31-2.74-7.24V81.1H159.88z"/>
		<path class="st2" d="M182.93,108.9V81.1h5.83c2.8,0,5.01,0.28,6.63,0.83c1.74,0.54,3.32,1.46,4.74,2.75
			c2.87,2.62,4.3,6.06,4.3,10.32c0,4.27-1.49,7.73-4.48,10.37c-1.5,1.32-3.07,2.24-4.72,2.75c-1.54,0.52-3.71,0.77-6.54,0.77H182.93
			z M187.12,104.96h1.89c1.88,0,3.45-0.2,4.7-0.59c1.25-0.42,2.38-1.09,3.39-2c2.06-1.88,3.1-4.34,3.1-7.36
			c0-3.05-1.02-5.52-3.06-7.42c-1.84-1.69-4.54-2.54-8.12-2.54h-1.89V104.96z"/>
		<path class="st2" d="M139.59,149.21h10.35v3.94h-18.67l9.65-11.69c0.95-1.16,1.74-2.17,2.39-3.02c0.64-0.85,1.13-1.57,1.47-2.14
			c0.68-1.13,1.03-2.14,1.03-3.04c0-1.3-0.46-2.38-1.37-3.26c-0.91-0.88-2.04-1.31-3.39-1.31c-2.81,0-4.42,1.66-4.83,4.99h-4.18
			c0.67-5.86,3.63-8.79,8.88-8.79c2.53,0,4.66,0.8,6.37,2.41c1.73,1.61,2.59,3.6,2.59,5.98c0,1.51-0.4,2.99-1.21,4.45
			c-0.41,0.76-1.01,1.65-1.79,2.69c-0.79,1.04-1.78,2.27-2.98,3.68L139.59,149.21z"/>
		<path class="st2" d="M79.45,197.4l5.85-29.89l9.54,21.61l9.88-21.61l5.26,29.89h-4.3L103,180.62l-8.23,18.06l-7.99-18.08
			l-2.99,16.8H79.45z"/>
		<path class="st2" d="M131.59,173.74l-3.4,2.02c-0.64-1.1-1.24-1.82-1.82-2.16c-0.6-0.38-1.37-0.58-2.32-0.58
			c-1.16,0-2.13,0.33-2.9,0.99c-0.77,0.65-1.15,1.46-1.15,2.45c0,1.36,1.01,2.45,3.02,3.28l2.77,1.13c2.26,0.91,3.91,2.03,4.95,3.34
			s1.57,2.93,1.57,4.83c0,2.56-0.85,4.67-2.56,6.34c-1.72,1.68-3.85,2.52-6.39,2.52c-2.41,0-4.41-0.71-5.98-2.14
			c-1.55-1.43-2.51-3.44-2.9-6.03l4.25-0.94c0.19,1.63,0.53,2.76,1.01,3.38c0.86,1.2,2.12,1.8,3.78,1.8c1.31,0,2.39-0.44,3.26-1.31
			s1.3-1.99,1.3-3.33c0-0.54-0.08-1.04-0.23-1.49c-0.15-0.45-0.38-0.86-0.7-1.24c-0.32-0.38-0.73-0.73-1.23-1.06
			c-0.5-0.33-1.1-0.64-1.8-0.95l-2.68-1.12c-3.81-1.61-5.71-3.96-5.71-7.06c0-2.09,0.8-3.83,2.39-5.24c1.6-1.42,3.58-2.12,5.96-2.12
			C127.29,169.06,129.79,170.62,131.59,173.74z"/>
		<path class="st2" d="M145.56,173.54v23.86h-4.2v-23.86h-6.39v-3.94h16.96v3.94H145.56z"/>
		<path class="st2" d="M159.88,169.6v16.74c0,2.39,0.39,4.13,1.17,5.24c1.16,1.6,2.8,2.39,4.92,2.39c2.12,0,3.77-0.8,4.93-2.39
			c0.78-1.07,1.17-2.81,1.17-5.24V169.6h4.2v17.9c0,2.93-0.91,5.34-2.74,7.24c-2.05,2.11-4.57,3.17-7.56,3.17
			c-2.99,0-5.5-1.06-7.54-3.17c-1.82-1.9-2.74-4.31-2.74-7.24v-17.9H159.88z"/>
		<path class="st2" d="M182.93,197.4v-27.8h5.83c2.8,0,5.01,0.28,6.63,0.83c1.74,0.54,3.32,1.46,4.74,2.75
			c2.87,2.62,4.3,6.06,4.3,10.32c0,4.27-1.49,7.73-4.48,10.37c-1.5,1.32-3.07,2.24-4.72,2.75c-1.54,0.52-3.71,0.77-6.54,0.77H182.93
			z M187.12,193.46h1.89c1.88,0,3.45-0.2,4.7-0.59c1.25-0.42,2.38-1.09,3.39-2c2.06-1.88,3.1-4.34,3.1-7.36
			c0-3.05-1.02-5.52-3.06-7.42c-1.84-1.69-4.54-2.54-8.12-2.54h-1.89V193.46z"/>
	</g>
	<g>
		<path class="st2" d="M226.32,36.12l-2.15-0.32c0.11-0.69,0.1-1.21-0.03-1.55c-0.12-0.37-0.39-0.72-0.79-1.05
			c-0.5-0.4-1.02-0.6-1.58-0.58c-0.55,0.01-1,0.23-1.34,0.65c-0.47,0.58-0.42,1.4,0.16,2.45l0.79,1.45
			c0.65,1.17,0.97,2.22,0.96,3.14s-0.34,1.79-1.01,2.61c-0.89,1.09-1.98,1.7-3.29,1.82c-1.32,0.12-2.52-0.26-3.6-1.14
			c-1.03-0.84-1.63-1.83-1.81-2.99c-0.17-1.15,0.12-2.34,0.85-3.58l2.14,1.07c-0.48,0.76-0.73,1.36-0.74,1.8
			c-0.05,0.81,0.28,1.5,0.99,2.08c0.56,0.45,1.17,0.64,1.85,0.57s1.24-0.4,1.71-0.97c0.19-0.23,0.33-0.47,0.42-0.71
			c0.09-0.24,0.13-0.5,0.13-0.77c0-0.27-0.06-0.56-0.16-0.88c-0.1-0.32-0.25-0.66-0.44-1.03l-0.76-1.41
			c-1.07-2.01-1.07-3.67,0.01-4.99c0.72-0.89,1.67-1.36,2.84-1.41c1.17-0.05,2.27,0.33,3.28,1.16
			C226.1,32.63,226.63,34.16,226.32,36.12z"/>
		<path class="st2" d="M227.04,44.23l-5.17,5.52l-1.63-1.52l5.17-5.52l-0.69-0.65l1.42-1.52l0.69,0.65l2.42-2.58l1.63,1.52
			l-2.42,2.58l1.26,1.18l-1.42,1.52L227.04,44.23z"/>
		<path class="st2" d="M232.62,46.83l-4.04,3.78c-1.17,1.09-1.32,2.1-0.46,3.02c0.86,0.92,1.88,0.83,3.04-0.26l4.04-3.78l1.52,1.63
			l-4.08,3.82c-0.56,0.53-1.12,0.91-1.66,1.16c-0.49,0.21-1.04,0.28-1.65,0.23c-0.99-0.1-1.88-0.58-2.68-1.43
			c-0.79-0.84-1.2-1.76-1.24-2.76c-0.02-0.61,0.08-1.16,0.32-1.64c0.2-0.44,0.62-0.96,1.27-1.57l4.08-3.82L232.62,46.83z"/>
		<path class="st2" d="M248.9,55.06l1.37,1.77l-13.21,10.26l-1.37-1.77l0.8-0.62c-1.22-0.17-2.17-0.69-2.85-1.56
			c-0.81-1.04-1.1-2.2-0.87-3.48c0.25-1.29,0.95-2.38,2.11-3.28c1.14-0.88,2.35-1.28,3.64-1.19c1.29,0.08,2.34,0.64,3.14,1.66
			c0.69,0.89,0.95,1.97,0.76,3.24L248.9,55.06z M236.28,58.16c-0.73,0.57-1.17,1.22-1.33,1.97c-0.15,0.76,0.01,1.45,0.48,2.06
			c0.51,0.65,1.14,1,1.9,1.06c0.78,0.04,1.52-0.22,2.24-0.77c0.71-0.55,1.15-1.21,1.3-1.97c0.14-0.75-0.04-1.45-0.53-2.09
			c-0.47-0.6-1.09-0.93-1.87-0.98C237.7,57.39,236.97,57.63,236.28,58.16z"/>
		<path class="st2" d="M246.82,74.21l-3.72-5.83c-0.64,0.48-1.03,1.03-1.18,1.67c-0.14,0.63-0.03,1.25,0.36,1.85
			c0.3,0.47,0.66,0.78,1.07,0.95c0.42,0.16,1.04,0.24,1.89,0.24l0.13,2.15c-0.57,0.02-1.1-0.01-1.57-0.09
			c-0.47-0.08-0.9-0.22-1.29-0.41c-0.39-0.19-0.75-0.44-1.07-0.74c-0.32-0.31-0.61-0.67-0.88-1.09c-0.77-1.21-1-2.44-0.69-3.67
			c0.32-1.24,1.12-2.27,2.42-3.09c1.29-0.82,2.55-1.13,3.8-0.92c1.24,0.22,2.24,0.92,3,2.1c0.76,1.2,0.99,2.39,0.67,3.57
			c-0.32,1.17-1.15,2.19-2.49,3.04L246.82,74.21z M247.13,71.3c0.83-0.9,0.93-1.85,0.29-2.85c-0.15-0.23-0.32-0.42-0.51-0.58
			c-0.2-0.16-0.41-0.27-0.65-0.35c-0.24-0.08-0.48-0.12-0.74-0.12c-0.26,0-0.52,0.04-0.8,0.13L247.13,71.3z"/>
		<path class="st2" d="M252.8,73.92l1.03,1.99l-0.79,0.41c1.04,0.33,1.79,0.94,2.24,1.8c0.52,1,0.61,1.93,0.27,2.82
			c-0.28,0.76-1.03,1.45-2.23,2.08l-5.25,2.73l-1.03-1.99l4.78-2.49c0.84-0.44,1.36-0.86,1.57-1.26c0.21-0.4,0.16-0.9-0.16-1.5
			c-0.34-0.66-0.8-1.01-1.38-1.06c-0.57-0.05-1.38,0.21-2.45,0.76l-4.13,2.15l-1.03-1.99L252.8,73.92z"/>
		<path class="st2" d="M256.96,87.17l-6.93,3.04l-0.9-2.04l6.93-3.04l-0.38-0.87l1.9-0.84l0.38,0.87l3.24-1.42l0.9,2.04l-3.24,1.42
			l0.7,1.59l-1.9,0.84L256.96,87.17z"/>
	</g>
</g>
</svg>
