<?xml version="1.0" encoding="utf-8"?>
<!-- Generator: Adobe Illustrator 26.0.1, SVG Export Plug-In . SVG Version: 6.00 Build 0)  -->
<svg version="1.1" id="Layer_1" xmlns="http://www.w3.org/2000/svg" xmlns:xlink="http://www.w3.org/1999/xlink" x="0px" y="0px"
	 viewBox="0 0 63.39 38.39" style="enable-background:new 0 0 63.39 38.39;" xml:space="preserve">
<style type="text/css">
	.st0{fill:#FFFFFF;stroke:#FFFFFF;stroke-miterlimit:10;}
</style>
<path class="st0" d="M31.81,31.81L31.81,31.81c-0.78,0.78-2.05,0.78-2.83,0l-19.8-19.8c-0.78-0.78-0.78-2.05,0-2.83l0,0
	c0.78-0.78,2.05-0.78,2.83,0l19.8,19.8C32.59,29.77,32.59,31.03,31.81,31.81z"/>
<path class="st0" d="M29.19,31.81L29.19,31.81c-0.78-0.78-0.78-2.05,0-2.83l19.8-19.8c0.78-0.78,2.05-0.78,2.83,0v0
	c0.78,0.78,0.78,2.05,0,2.83l-19.8,19.8C31.23,32.59,29.97,32.59,29.19,31.81z"/>
</svg>
